<svg width="27" height="27" fill="none" xmlns="http://www.w3.org/2000/svg"><mask id="a" fill="#fff"><path d="M24 8.385c0 6.329-6.216 13.614-8.316 15.894a.92.92 0 01-1.368 0C12.216 22 6 14.713 6 8.385 6 4.306 10.03 0 15 0s9 4.306 9 8.385z"/></mask><path d="M15.684 24.28l1.471 1.354-1.471-1.355zM22 8.384c0 2.587-1.304 5.593-3.065 8.403-1.725 2.752-3.714 5.042-4.722 6.137l2.942 2.71c1.092-1.187 3.261-3.68 5.169-6.723C24.196 15.927 26 12.127 26 8.385h-4zm-6.213 14.54c-1.008-1.095-2.997-3.385-4.722-6.137C9.304 13.978 8 10.972 8 8.385H4c0 3.742 1.804 7.542 3.676 10.527 1.908 3.043 4.077 5.536 5.169 6.722l2.942-2.71zM8 8.385c0-1.398.71-3.002 2.031-4.29C11.336 2.826 13.101 2 15 2v-4C11.928-2 9.193-.671 7.24 1.23 5.306 3.115 4 5.704 4 8.385h4zM15 2c1.898 0 3.663.825 4.968 2.096C21.29 5.383 22 6.986 22 8.385h4c0-2.681-1.305-5.27-3.24-7.155C20.806-.67 18.071-2 15-2v4zm-.787 20.925a1.08 1.08 0 011.575 0l-2.943 2.71a2.92 2.92 0 004.31 0l-2.943-2.71z" fill="#999" mask="url(#a)"/><circle cx="15" cy="10" r="3" stroke="#999" stroke-width="2"/></svg>