<svg width="34" height="29" fill="none" xmlns="http://www.w3.org/2000/svg"><path d="M2.738 1H1v1.73h1.738c1.314 0 2.414.86 2.658 2.012l1.906 10.885.002.01c.419 1.996 2.29 3.407 4.434 3.407h17.566V18H11.738c-1.314 0-2.414-1.546-2.658-2.698l-.05-.281h17.11c2.078 0 3.91-1.328 4.396-3.245l1.405-5.54c.324-1.279-.724-2.442-2.052-2.442H6.991C6.354 2.128 4.654 1 2.738 1zm10.048 20.801c-1.805 0-3.314 1.364-3.314 3.1S10.981 28 12.786 28c1.805 0 3.313-1.363 3.313-3.1 0-1.735-1.508-3.099-3.313-3.099zm12.104 0c-1.806 0-3.314 1.364-3.314 3.1S23.084 28 24.889 28c1.805 0 3.313-1.363 3.313-3.1 0-1.735-1.508-3.099-3.313-3.099z" stroke="#61646B" stroke-width="2"/></svg>