<svg width="105" height="125" fill="none" xmlns="http://www.w3.org/2000/svg"><path d="M92 123c0-15.005-13.655-24-30.5-24S31 107.995 31 123" stroke="#61646B" stroke-width="4" stroke-linecap="round"/><path d="M7.606 2H2v5.572h5.606c4.24 0 7.789 2.774 8.576 6.487L22.33 49.13l.007.032C23.686 55.595 29.726 62 36.639 62h56.663v-5.222H36.638c-4.238 0-7.788-4.983-8.575-8.695l-.158-.904h55.19c6.703 0 12.613-4.279 14.181-10.457l4.532-17.852c1.046-4.12-2.335-7.868-6.617-7.868H21.326C19.27 5.635 13.787 2 7.606 2zm32.412 67.026c-5.822 0-10.688 4.393-10.688 9.987 0 5.593 4.866 9.987 10.688 9.987 5.823 0 10.688-4.394 10.688-9.987 0-5.594-4.865-9.987-10.688-9.987zm39.044 0c-5.823 0-10.688 4.393-10.688 9.987 0 5.593 4.865 9.987 10.688 9.987 5.822 0 10.688-4.394 10.688-9.987 0-5.594-4.866-9.987-10.688-9.987z" stroke="#61646B" stroke-width="4"/></svg>