<svg width="32" height="32" fill="none" xmlns="http://www.w3.org/2000/svg"><path d="M6.972 17.189a6.472 6.472 0 01-.01-9.224 1.802 1.802 0 012.53 0l1.693 1.666c.654.644.694 1.684.093 2.377a2.825 2.825 0 00.07 3.78l4.224 4.523a2.818 2.818 0 004.053.067 1.726 1.726 0 012.403-.04l1.828 1.716c.709.665.753 1.776.098 2.495a6.41 6.41 0 01-9.23.255L6.972 17.19z" stroke="#999" stroke-width="2"/><path d="M14.99 7.725a1 1 0 10-.182 1.992l.181-1.992zm4.76 7.046a1 1 0 001.948-.45l-1.949.45zm-4.942-5.054c1.181.107 4.058 1.226 4.941 5.054l1.949-.45c-1.114-4.826-4.838-6.426-6.709-6.596l-.18 1.992zm.845-7.4a1 1 0 10-.18 1.992l.18-1.992zm8.92 11.206a1 1 0 001.95-.45l-1.95.45zm-9.1-9.214c2.27.206 7.504 2.295 9.1 9.213l1.95-.45c-1.828-7.916-7.91-10.486-10.87-10.755l-.18 1.992z" fill="#999"/></svg>