<svg width="98" height="98" fill="none" xmlns="http://www.w3.org/2000/svg"><g clip-path="url(#clip0)" fill="#D5D7DD" fill-opacity=".5"><path d="M64.34 26.443c-2.92-2.025-6.463-2.787-9.972-2.16a13.264 13.264 0 00-8.567 5.52c-2.026 2.919-2.788 6.462-2.16 9.971.095.552.625.925 1.177.83.552-.097.925-.627.829-1.179a11.295 11.295 0 011.822-8.448c1.704-2.484 4.294-4.14 7.267-4.674a11.295 11.295 0 018.449 1.822c2.484 1.705 4.14 4.294 4.674 7.268a11.295 11.295 0 01-1.823 8.448c-1.704 2.484-4.293 4.14-7.267 4.674a1.021 1.021 0 00-.829 1.178c.096.552.626.925 1.178.829a13.264 13.264 0 008.567-5.52c2.025-2.92 2.818-6.485 2.175-9.991a13.265 13.265 0 00-5.52-8.568z"/><path d="M86.988 37.908l-3.334-.747a26.46 26.46 0 00-1.509-8.679l2.887-1.828a3.574 3.574 0 001.63-2.316c.225-.986.05-1.99-.494-2.843l-2.471-3.912a3.745 3.745 0 00-2.356-1.658 3.7 3.7 0 00-2.843.494l-2.886 1.829a26.469 26.469 0 00-7.204-5.07l.747-3.335a3.77 3.77 0 00-2.85-4.5l-4.499-1.01a3.77 3.77 0 00-4.5 2.849l-.748 3.334a26.46 26.46 0 00-8.679 1.508l-1.828-2.886a3.744 3.744 0 00-2.355-1.658 3.7 3.7 0 00-2.843.494l-3.895 2.469a3.744 3.744 0 00-1.658 2.355c-.225.987-.05 1.99.494 2.843l1.828 2.886a26.47 26.47 0 00-5.07 7.204l-3.335-.747a3.7 3.7 0 00-2.843.494 3.745 3.745 0 00-1.658 2.356l-1.026 4.502a3.77 3.77 0 002.85 4.5l4.141.935a1.005 1.005 0 001.212-.762 1.005 1.005 0 00-.762-1.211l-4.142-.934a1.722 1.722 0 01-1.306-2.064l1.01-4.5c.2-.93 1.13-1.523 2.064-1.306l4.141.934a1.02 1.02 0 001.157-.58 24.637 24.637 0 015.554-7.891c.355-.337.419-.865.156-1.285l-2.276-3.584a1.785 1.785 0 01-.227-1.304c.094-.447.37-.84.76-1.08l3.912-2.471c.389-.24.857-.321 1.304-.227.447.095.84.371 1.08.76l2.276 3.584c.26.403.772.572 1.225.407a24.344 24.344 0 019.515-1.653 1 1 0 001.016-.797l.934-4.142a1.722 1.722 0 012.064-1.306l4.5 1.01a1.722 1.722 0 011.306 2.064l-.906 4.102a1.02 1.02 0 00.58 1.157 24.636 24.636 0 017.89 5.554c.338.355.866.418 1.285.156l3.584-2.277c.39-.24.858-.321 1.305-.226.447.094.84.37 1.08.76l2.47 3.911c.24.39.322.857.228 1.305-.095.447-.371.84-.76 1.08l-3.584 2.276c-.403.26-.573.771-.408 1.225 1.185 3.05 1.723 6.247 1.654 9.515a1 1 0 00.797 1.016l4.142.934a1.722 1.722 0 011.306 2.064l-1.01 4.5a1.722 1.722 0 01-2.064 1.306l-4.142-.934a1.02 1.02 0 00-1.157.58 24.637 24.637 0 01-5.554 7.89 1.013 1.013 0 00-.156 1.285l2.277 3.584c.24.39.321.858.227 1.305a1.68 1.68 0 01-.76 1.08l-3.912 2.47c-.389.24-.857.322-1.304.228a1.681 1.681 0 01-1.08-.76l-2.277-3.584a1.003 1.003 0 00-1.397-.309c-.48.308-.613.934-.308 1.398l2.276 3.584a3.744 3.744 0 002.356 1.657 3.83 3.83 0 001.47.038 3.84 3.84 0 001.373-.531l3.911-2.472a3.745 3.745 0 001.658-2.355c.225-.987.05-1.99-.494-2.843l-1.828-2.887a26.469 26.469 0 005.07-7.204l3.335.747a3.7 3.7 0 002.843-.494 3.744 3.744 0 001.658-2.355l1.01-4.5a3.77 3.77 0 00-2.85-4.5zM32.659 58.962c-5.184.9-8.663 5.864-7.762 11.048.9 5.184 5.844 8.649 11.028 7.748 5.184-.9 8.666-5.847 7.765-11.031-.901-5.184-5.847-8.666-11.031-7.765zm2.92 16.806a7.505 7.505 0 01-8.676-6.107 7.505 7.505 0 016.107-8.676 7.505 7.505 0 018.676 6.107 7.505 7.505 0 01-6.107 8.676z"/><path d="M54.688 60.026l-2.224.386a19.283 19.283 0 00-3.25-5.12l1.299-1.845c.47-.667.643-1.455.503-2.258a3.004 3.004 0 00-1.236-1.956L47.032 47.3a2.976 2.976 0 00-2.258-.504 2.976 2.976 0 00-1.956 1.236l-1.298 1.845a19.763 19.763 0 00-5.917-1.332l-.387-2.224a3.028 3.028 0 00-3.494-2.46l-3.31.576a3.028 3.028 0 00-2.46 3.494l.387 2.224a19.282 19.282 0 00-5.12 3.25l-1.846-1.298a2.976 2.976 0 00-2.258-.504 3.005 3.005 0 00-1.956 1.236l-1.934 2.748a2.976 2.976 0 00-.503 2.258 3.004 3.004 0 001.235 1.956l1.845 1.299a19.76 19.76 0 00-1.332 5.917l-2.19.38a3.028 3.028 0 00-2.46 3.494l.576 3.311c.307 1.67 1.858 2.761 3.497 2.476l2.224-.386a19.285 19.285 0 003.25 5.12l-1.299 1.845a2.975 2.975 0 00-.503 2.258A3.004 3.004 0 0018.8 87.47l2.748 1.934a2.98 2.98 0 002.259.504 3.005 3.005 0 001.956-1.236l1.298-1.845a19.763 19.763 0 005.917 1.332l.386 2.224a3.028 3.028 0 003.494 2.46l3.311-.576a3.028 3.028 0 002.46-3.494l-.39-2.24a19.285 19.285 0 005.12-3.25l1.846 1.298c.667.47 1.455.643 2.258.503a2.976 2.976 0 001.956-1.236l1.934-2.748c.47-.667.643-1.455.503-2.258a3.005 3.005 0 00-1.235-1.956l-1.846-1.298a19.763 19.763 0 001.333-5.917l2.19-.38a3.028 3.028 0 002.46-3.495l-.576-3.31a3.028 3.028 0 00-3.494-2.46zm2.069 6.153a.985.985 0 01-.802 1.138l-3.043.529a1.018 1.018 0 00-.847.974 17.481 17.481 0 01-1.516 6.741c-.198.448-.055.974.337 1.25l2.533 1.783a.962.962 0 01.403.636.99.99 0 01-.165.735l-1.934 2.748a.961.961 0 01-.637.404.961.961 0 01-.735-.165l-2.532-1.783a1.025 1.025 0 00-1.291.104 17.582 17.582 0 01-5.834 3.702c-.451.181-.716.64-.632 1.126l.53 3.043a.985.985 0 01-.802 1.139l-3.31.575a.985.985 0 01-1.14-.801l-.528-3.044a1.019 1.019 0 00-.974-.847 17.46 17.46 0 01-6.742-1.516.985.985 0 00-.58-.071.977.977 0 00-.65.423l-1.783 2.532a.961.961 0 01-.636.403.99.99 0 01-.735-.165l-2.748-1.934a.961.961 0 01-.403-.636.99.99 0 01.165-.735l1.782-2.532a1.025 1.025 0 00-.104-1.292 17.582 17.582 0 01-3.701-5.834 1.019 1.019 0 00-1.127-.631l-3.026.526a.985.985 0 01-1.139-.801l-.578-3.328.017-.003a.985.985 0 01.801-1.139l3.043-.529c.486-.084.829-.488.848-.974.059-2.336.56-4.61 1.516-6.74a1.025 1.025 0 00-.338-1.251l-2.55-1.78a.961.961 0 01-.403-.636.99.99 0 01.165-.735l1.935-2.748a.962.962 0 01.636-.403.99.99 0 01.735.165l2.532 1.782c.393.276.937.234 1.291-.104a17.583 17.583 0 015.835-3.701 1.02 1.02 0 00.631-1.126l-.529-3.044a.985.985 0 01.801-1.138l3.311-.576a.985.985 0 011.139.802l.532 3.06c.084.485.488.828.974.847 2.336.06 4.61.56 6.74 1.516.449.198.975.055 1.252-.338l1.782-2.532a.962.962 0 01.636-.404.961.961 0 01.735.166l2.748 1.934a.961.961 0 01.403.636.99.99 0 01-.165.735l-1.818 2.521c-.277.393-.234.937.104 1.292a17.582 17.582 0 013.701 5.834c.182.45.641.715 1.126.631l3.044-.529a.985.985 0 011.138.801l.576 3.312z"/></g><defs><clipPath id="clip0"><path fill="#fff" transform="rotate(-9.859 83.38 7.191)" d="M0 0h84v84H0z"/></clipPath></defs></svg>