<svg width="26" height="26" fill="none" xmlns="http://www.w3.org/2000/svg"><path d="M10.116 18.993a2.328 2.328 0 01-.295 2.959 2.38 2.38 0 01-2.987.292 2.349 2.349 0 01-.871-1.052 2.323 2.323 0 01.512-2.554 2.387 2.387 0 012.578-.508c.433.178.803.478 1.063.863zm6.713 0a2.328 2.328 0 01-.295 2.959 2.38 2.38 0 01-2.987.292 2.348 2.348 0 01-.871-1.052 2.322 2.322 0 01.513-2.554 2.387 2.387 0 012.578-.508 2.37 2.37 0 011.062.863zM22.62 5.552h-.905a3.14 3.14 0 00-2.206.905 3.075 3.075 0 00-.914 2.186v1.084H10.52v-5.84a.769.769 0 00-.229-.547.784.784 0 00-.551-.226 7.185 7.185 0 00-5.047 2.075A7.048 7.048 0 002.6 10.188v.319c0 .055.006.109.018.162a7.057 7.057 0 002.255 4.68 7.19 7.19 0 004.87 1.905H13a7.188 7.188 0 005.053-2.068 7.05 7.05 0 002.102-4.998V8.643c0-.41.165-.803.457-1.093.293-.29.69-.453 1.103-.453h.905a.784.784 0 00.552-.226.769.769 0 000-1.092.784.784 0 00-.552-.227z" fill="#FDE7C5"/></svg>